<svg xmlns="http://www.w3.org/2000/svg" width="150" height="51" fill="none"><rect width="149" height="49" x=".5" y=".613" fill="#fff" rx="6.5"/><rect width="149" height="49" x=".5" y=".613" stroke="#000" rx="6.5"/><path fill="#000" d="M101.907 24.114v2.863h-1.795v1.879h1.795v6.38c0 2.18.986 3.051 3.466 3.051a7.23 7.23 0 0 0 1.214-.114v-1.857c-.311.031-.509.052-.851.052-1.11 0-1.598-.519-1.598-1.702v-5.81h2.449v-1.879h-2.449v-2.863h-2.231zm10.997 14.329c3.3 0 5.323-2.21 5.323-5.873 0-3.642-2.034-5.862-5.323-5.862-3.299 0-5.333 2.22-5.333 5.862 0 3.663 2.023 5.873 5.333 5.873zm0-1.982c-1.94 0-3.03-1.421-3.03-3.89 0-2.45 1.09-3.881 3.03-3.881 1.93 0 3.03 1.431 3.03 3.88 0 2.46-1.1 3.891-3.03 3.891zm7.054 1.764h2.231v-6.672c0-1.587 1.193-2.656 2.885-2.656.394 0 1.058.073 1.245.135v-2.2c-.239-.062-.664-.093-.996-.093-1.474 0-2.729.81-3.051 1.92h-.166v-1.733h-2.148v11.3zm11.9-9.618c1.65 0 2.729 1.151 2.781 2.926h-5.707c.124-1.764 1.276-2.927 2.926-2.927zm2.77 6.568c-.415.882-1.338 1.37-2.687 1.37-1.785 0-2.937-1.256-3.009-3.238v-.125h7.979v-.778c0-3.548-1.899-5.696-5.043-5.696-3.185 0-5.209 2.293-5.209 5.904 0 3.61 1.982 5.831 5.22 5.831 2.583 0 4.389-1.245 4.897-3.268h-2.148zm-47.35-1.123c.172 2.775 2.484 4.55 5.925 4.55 3.678 0 5.98-1.861 5.98-4.83 0-2.333-1.312-3.623-4.495-4.365l-1.71-.42c-2.022-.473-2.84-1.108-2.84-2.215 0-1.398 1.27-2.313 3.173-2.313 1.807 0 3.054.893 3.28 2.323h2.345c-.14-2.613-2.442-4.452-5.593-4.452-3.387 0-5.646 1.84-5.646 4.603 0 2.28 1.28 3.635 4.087 4.291l2 .484c2.054.484 2.958 1.194 2.958 2.377 0 1.376-1.42 2.376-3.356 2.376-2.075 0-3.516-.935-3.72-2.409h-2.388zm-23.109-7.313c-1.536 0-2.864.768-3.549 2.054h-.166v-1.867h-2.148V41.98h2.231v-5.468h.177c.59 1.193 1.867 1.899 3.475 1.899 2.854 0 4.67-2.252 4.67-5.842s-1.816-5.831-4.69-5.831zm-.633 9.67c-1.868 0-3.04-1.473-3.04-3.828 0-2.366 1.172-3.84 3.05-3.84 1.889 0 3.02 1.443 3.02 3.83 0 2.396-1.131 3.838-3.03 3.838zm13.129-9.67c-1.536 0-2.864.768-3.549 2.054h-.166v-1.867h-2.148V41.98h2.231v-5.468h.177c.59 1.193 1.867 1.899 3.475 1.899 2.854 0 4.67-2.252 4.67-5.842s-1.816-5.831-4.69-5.831zm-.633 9.67c-1.868 0-3.04-1.473-3.04-3.828 0-2.366 1.172-3.84 3.05-3.84 1.889 0 3.02 1.443 3.02 3.83 0 2.396-1.131 3.838-3.03 3.838zm-21.728 1.816h2.56L51.26 22.706h-2.59l-5.604 15.52h2.474l1.43-4.12h5.915l1.42 4.12zm-4.463-12.7h.182l2.248 6.56h-4.689l2.259-6.56zm-5.278-14.524v7.486h2.703c2.231 0 3.523-1.374 3.523-3.766 0-2.355-1.302-3.72-3.523-3.72h-2.703zm1.163 1.059h1.41c1.552 0 2.47.985 2.47 2.676 0 1.718-.903 2.693-2.47 2.693h-1.41v-5.37zm9.019 6.536c1.65 0 2.662-1.105 2.662-2.936 0-1.821-1.017-2.931-2.662-2.931-1.65 0-2.666 1.11-2.666 2.931 0 1.831 1.011 2.936 2.666 2.936zm0-.99c-.97 0-1.514-.711-1.514-1.946 0-1.224.544-1.94 1.514-1.94.965 0 1.515.716 1.515 1.94 0 1.23-.55 1.945-1.515 1.945zm11.277-4.768h-1.115l-1.007 4.31h-.088l-1.162-4.31h-1.07l-1.162 4.31h-.083l-1.012-4.31h-1.13l1.556 5.65h1.146l1.162-4.161h.089l1.167 4.16h1.157l1.551-5.65zm1.285 5.649h1.115v-3.304c0-.882.524-1.432 1.349-1.432s1.22.451 1.22 1.359v3.377h1.115V14.83c0-1.344-.696-2.101-1.956-2.101-.851 0-1.412.379-1.687 1.006h-.082v-.897h-1.074v5.65zm6.555 0h1.116v-7.854h-1.116v7.854zm5.311.109c1.65 0 2.661-1.105 2.661-2.936 0-1.821-1.017-2.931-2.661-2.931-1.65 0-2.667 1.11-2.667 2.931 0 1.831 1.012 2.936 2.667 2.936zm0-.99c-.97 0-1.515-.711-1.515-1.946 0-1.224.544-1.94 1.515-1.94.965 0 1.514.716 1.514 1.94 0 1.23-.55 1.945-1.514 1.945zm5.984.036c-.607 0-1.048-.296-1.048-.804 0-.498.353-.763 1.131-.815l1.38-.088v.472c0 .7-.622 1.235-1.463 1.235zm-.285.939c.742 0 1.36-.322 1.697-.887h.088v.793h1.074v-3.86c0-1.193-.8-1.898-2.216-1.898-1.281 0-2.194.622-2.308 1.593h1.079c.124-.4.555-.628 1.177-.628.763 0 1.157.337 1.157.934v.487l-1.53.088c-1.344.083-2.101.67-2.101 1.687 0 1.032.794 1.69 1.883 1.69zm6.644-.001c.778 0 1.437-.367 1.774-.985h.088v.892h1.069v-7.854h-1.115v3.102h-.083c-.306-.622-.96-.99-1.733-.99-1.427 0-2.345 1.13-2.345 2.915 0 1.79.908 2.92 2.345 2.92zm.316-4.834c.934 0 1.52.742 1.52 1.92 0 1.182-.58 1.913-1.52 1.913-.944 0-1.51-.72-1.51-1.919 0-1.188.571-1.914 1.51-1.914zm9.848 4.85c1.65 0 2.662-1.105 2.662-2.936 0-1.821-1.017-2.931-2.662-2.931-1.65 0-2.667 1.11-2.667 2.931 0 1.831 1.012 2.936 2.667 2.936zm0-.99c-.97 0-1.515-.711-1.515-1.946 0-1.224.545-1.94 1.515-1.94.965 0 1.515.716 1.515 1.94 0 1.23-.55 1.945-1.515 1.945zm4.138.881h1.115v-3.304c0-.882.524-1.432 1.349-1.432s1.22.451 1.22 1.359v3.377h1.115V14.83c0-1.344-.695-2.101-1.956-2.101-.851 0-1.411.379-1.686 1.006h-.083v-.897h-1.074v5.65zm9.936-7.055v1.432h-.897v.939h.897v3.19c0 1.09.493 1.526 1.733 1.526.218 0 .425-.026.607-.057v-.93c-.156.016-.254.027-.426.027-.555 0-.798-.26-.798-.851v-2.905h1.224v-.94h-1.224v-1.431h-1.116zm3.837 7.055h1.116v-3.3c0-.855.508-1.431 1.421-1.431.789 0 1.209.457 1.209 1.36v3.371h1.115V14.84c0-1.343-.742-2.106-1.945-2.106-.851 0-1.448.379-1.723 1.012h-.088v-3.113h-1.105v7.854zm8.885-4.809c.825 0 1.365.576 1.39 1.463h-2.853c.062-.882.638-1.463 1.463-1.463zm1.385 3.284c-.207.441-.669.685-1.343.685-.893 0-1.469-.628-1.505-1.619v-.062h3.99v-.389c0-1.774-.95-2.848-2.522-2.848-1.592 0-2.604 1.146-2.604 2.952 0 1.805.991 2.915 2.609 2.915 1.292 0 2.195-.622 2.449-1.634h-1.074zM30.962 25.49a6.236 6.236 0 0 1 2.945-5.191 6.41 6.41 0 0 0-4.989-2.697c-2.099-.22-4.134 1.256-5.203 1.256-1.09 0-2.738-1.234-4.511-1.198a6.699 6.699 0 0 0-5.591 3.41c-2.418 4.186-.614 10.337 1.701 13.72 1.159 1.657 2.513 3.508 4.285 3.442 1.734-.072 2.381-1.106 4.474-1.106 2.074 0 2.681 1.106 4.489 1.064 1.86-.03 3.032-1.664 4.15-3.336a13.7 13.7 0 0 0 1.898-3.866 6.03 6.03 0 0 1-3.648-5.499zm-3.415-10.113a6.09 6.09 0 0 0 1.393-4.363 6.196 6.196 0 0 0-4.01 2.074 5.848 5.848 0 0 0-1.43 4.202 5.184 5.184 0 0 0 4.047-1.913z"/></svg>
