<svg xmlns="http://www.w3.org/2000/svg" width="168" height="51" fill="none"><rect width="167" height="49" x=".5" y=".613" fill="#fff" rx="4.5"/><rect width="167" height="49" x=".5" y=".613" stroke="#000" rx="4.5"/><path fill="#000" d="M84.792 27.302c-2.927 0-5.313 2.236-5.313 5.316 0 3.061 2.386 5.316 5.313 5.316 2.928 0 5.314-2.255 5.314-5.316-.002-3.08-2.387-5.316-5.314-5.316zm0 8.54c-1.604 0-2.987-1.329-2.987-3.223 0-1.913 1.384-3.222 2.987-3.222 1.604 0 2.986 1.309 2.986 3.222 0 1.893-1.382 3.223-2.986 3.223zM73.2 27.302c-2.927 0-5.313 2.236-5.313 5.316 0 3.061 2.386 5.316 5.313 5.316 2.928 0 5.314-2.255 5.314-5.316 0-3.08-2.386-5.316-5.314-5.316zm0 8.54c-1.604 0-2.987-1.329-2.987-3.223 0-1.913 1.384-3.222 2.987-3.222 1.604 0 2.987 1.309 2.987 3.222 0 1.893-1.383 3.223-2.987 3.223zm-13.786-6.908v2.255h5.373c-.16 1.27-.58 2.195-1.223 2.84-.781.784-2.005 1.65-4.15 1.65-3.308 0-5.894-2.678-5.894-6 0-3.323 2.586-6.002 5.894-6.002 1.785 0 3.087.705 4.05 1.611l1.584-1.591c-1.344-1.289-3.128-2.275-5.634-2.275-4.531 0-8.34 3.705-8.34 8.256s3.809 8.256 8.34 8.256c2.445 0 4.29-.806 5.733-2.316 1.484-1.49 1.945-3.585 1.945-5.276 0-.523-.04-1.006-.12-1.409h-7.558v.001zm56.383 1.752c-.44-1.188-1.784-3.384-4.531-3.384-2.726 0-4.992 2.155-4.992 5.316 0 2.98 2.246 5.316 5.252 5.316 2.426 0 3.829-1.49 4.412-2.356l-1.805-1.209c-.601.887-1.423 1.47-2.607 1.47-1.182 0-2.024-.543-2.566-1.61l7.077-2.94-.24-.603zm-7.218 1.772c-.059-2.055 1.585-3.101 2.768-3.101.922 0 1.704.464 1.965 1.127l-4.733 1.974zm-5.753 5.155h2.325V21.987h-2.325v15.626zm-3.81-9.122h-.08c-.521-.625-1.524-1.19-2.786-1.19-2.647 0-5.072 2.337-5.072 5.338 0 2.98 2.425 5.297 5.072 5.297 1.263 0 2.265-.564 2.786-1.208h.08v.765c0 2.034-1.083 3.121-2.826 3.121-1.424 0-2.306-1.026-2.667-1.892l-2.025.846c.581 1.409 2.125 3.141 4.692 3.141 2.726 0 5.032-1.61 5.032-5.538v-9.545h-2.205v.865h-.001zm-2.666 7.35c-1.604 0-2.947-1.35-2.947-3.202 0-1.873 1.343-3.242 2.947-3.242 1.583 0 2.826 1.369 2.826 3.242 0 1.853-1.243 3.203-2.826 3.203zm30.341-13.854h-5.564v15.626h2.321v-5.92h3.242c2.573 0 5.105-1.871 5.105-4.852 0-2.982-2.53-4.854-5.104-4.854zm.06 7.531h-3.303v-5.356h3.303c1.736 0 2.721 1.444 2.721 2.679 0 1.21-.985 2.677-2.721 2.677zm14.351-2.244c-1.681 0-3.422.744-4.143 2.393l2.061.864c.44-.864 1.262-1.147 2.122-1.147 1.201 0 2.421.724 2.441 2.01v.162c-.42-.242-1.321-.603-2.421-.603-2.222 0-4.484 1.226-4.484 3.518 0 2.09 1.822 3.437 3.863 3.437 1.56 0 2.421-.704 2.961-1.529h.08v1.207h2.242v-5.992c.002-2.772-2.062-4.32-4.722-4.32zm-.281 8.564c-.76 0-1.821-.382-1.821-1.327 0-1.207 1.322-1.67 2.463-1.67 1.019 0 1.5.222 2.12.523-.18 1.45-1.421 2.474-2.762 2.474zm13.17-8.222-2.662 6.775h-.08l-2.763-6.775h-2.501l4.143 9.468-2.362 5.268h2.421l6.386-14.736h-2.582zm-20.915 9.997h2.321V21.987h-2.321v15.626zM59.01 12.918c0 1.047-.31 1.881-.928 2.504-.702.74-1.618 1.11-2.743 1.11-1.077 0-1.995-.375-2.747-1.126-.755-.75-1.132-1.68-1.132-2.79 0-1.112.377-2.042 1.132-2.792.752-.751 1.67-1.126 2.747-1.126a3.84 3.84 0 0 1 1.532.313c.487.21.876.49 1.168.838l-.656.66c-.494-.594-1.175-.89-2.045-.89-.786 0-1.466.277-2.04.832-.573.556-.86 1.277-.86 2.163 0 .886.287 1.607.86 2.162a2.834 2.834 0 0 0 2.04.833c.834 0 1.53-.279 2.086-.838.36-.363.57-.87.626-1.518h-2.712v-.902h3.618c.037.197.053.385.053.567zm5.736-3.133h-3.4v2.378h3.067v.901h-3.067v2.378h3.4v.922h-4.359v-7.5h4.36v.921zm4.046 6.579h-.96V9.785h-2.085v-.92h5.13v.92h-2.085v6.58zm5.798 0v-7.5h.96v7.5h-.96zm5.214 0h-.96V9.785H76.76v-.92h5.13v.92h-2.085v6.58zm11.798-.969c-.734.758-1.646 1.137-2.737 1.137-1.092 0-2.004-.38-2.737-1.137-.734-.757-1.1-1.685-1.1-2.78 0-1.097.366-2.025 1.1-2.782.733-.758 1.645-1.138 2.737-1.138 1.085 0 1.996.382 2.732 1.143.737.761 1.105 1.686 1.105 2.776 0 1.096-.367 2.024-1.1 2.781zm-4.766-.628c.553.562 1.228.842 2.029.842.8 0 1.477-.281 2.028-.842.552-.563.83-1.28.83-2.153 0-.872-.278-1.59-.83-2.152-.551-.563-1.228-.843-2.028-.843s-1.476.281-2.029.843c-.551.562-.829 1.28-.829 2.152 0 .873.278 1.59.83 2.153zm7.213 1.597v-7.5h1.167l3.629 5.834h.041l-.041-1.445V8.864h.96v7.5h-1.002l-3.797-6.117h-.041l.04 1.445v4.672h-.956z"/><path stroke="#000" stroke-miterlimit="10" stroke-width=".2" d="M59.01 12.918c0 1.047-.31 1.881-.928 2.504-.702.74-1.618 1.11-2.743 1.11-1.077 0-1.995-.375-2.747-1.126-.755-.75-1.132-1.68-1.132-2.79 0-1.112.377-2.042 1.132-2.792.752-.751 1.67-1.126 2.747-1.126a3.84 3.84 0 0 1 1.532.313c.487.21.876.49 1.168.838l-.656.66c-.494-.594-1.175-.89-2.045-.89-.786 0-1.466.277-2.04.832-.573.556-.86 1.277-.86 2.163 0 .886.287 1.607.86 2.162a2.834 2.834 0 0 0 2.04.833c.834 0 1.53-.279 2.086-.838.36-.363.57-.87.626-1.518h-2.712v-.902h3.618c.037.197.053.385.053.567zm5.736-3.133h-3.4v2.378h3.067v.901h-3.067v2.378h3.4v.922h-4.359v-7.5h4.36v.921zm4.046 6.579h-.96V9.785h-2.085v-.92h5.13v.92h-2.085v6.58zm5.798 0v-7.5h.96v7.5h-.96zm5.214 0h-.96V9.785H76.76v-.92h5.13v.92h-2.085v6.58zm11.798-.969c-.734.758-1.646 1.137-2.737 1.137-1.092 0-2.004-.38-2.737-1.137-.734-.757-1.1-1.685-1.1-2.78 0-1.097.366-2.025 1.1-2.782.733-.758 1.645-1.138 2.737-1.138 1.085 0 1.996.382 2.732 1.143.737.761 1.105 1.686 1.105 2.776 0 1.096-.367 2.024-1.1 2.781zm-4.766-.628c.553.562 1.228.842 2.029.842.8 0 1.477-.281 2.028-.842.552-.563.83-1.28.83-2.153 0-.872-.278-1.59-.83-2.152-.551-.563-1.228-.843-2.028-.843s-1.476.281-2.029.843c-.551.562-.829 1.28-.829 2.152 0 .873.278 1.59.83 2.153zm7.213 1.597v-7.5h1.167l3.629 5.834h.041l-.041-1.445V8.864h.96v7.5h-1.002l-3.797-6.117h-.041l.04 1.445v4.672h-.956z"/><path fill="#000" d="m33.301 30.651-17.728 10.12c-.847.481-1.617.532-2.186.228l15.107-15.177 4.807 4.83zm-5.512-5.538L12.697 40.274c-.182-.354-.286-.803-.286-1.338V11.292c0-.534.104-.984.286-1.338l15.092 15.159zM39.84 23.31c1.739.993 1.739 2.617 0 3.61l-5.638 3.217-5.002-5.024 4.999-5.023 5.641 3.22zM13.386 9.23c.569-.305 1.34-.255 2.187.229l17.726 10.118-4.805 4.828L13.386 9.229z"/></svg>
